<?xml version="1.0" encoding="utf-8"?>
<!-- Generator: Adobe Illustrator 22.1.0, SVG Export Plug-In . SVG Version: 6.00 Build 0)  -->
<svg version="1.1" id="Layer_1" xmlns="http://www.w3.org/2000/svg" xmlns:xlink="http://www.w3.org/1999/xlink" x="0px" y="0px"
	 viewBox="0 0 300 200" style="enable-background:new 0 0 300 200;" xml:space="preserve">
<style type="text/css">
	.st0{fill:url(#bezier_1_);}
	.st1{fill:#F3C5AD;}
	.st2{fill:#0E0D0E;fill-opacity:0.3;}
	.st3{fill:#113F67;}
	.st4{fill:#FFFFFF;}
	.st5{fill:#D5A691;}
	.st6{fill:#9D8072;}
	.st7{opacity:0.1;}
	.st8{fill-opacity:0.1;}
	.st9{fill:#905424;}
	.st10{fill:#131110;}
	.st11{fill:#E6BAA4;}
	.st12{fill:#EAA98C;}
	.st13{fill:none;stroke:#9D8072;stroke-miterlimit:10;}
</style>
<g id="group2">
	<g id="layer_1_1_">
		
			<linearGradient id="bezier_1_" gradientUnits="userSpaceOnUse" x1="28.3" y1="132.67" x2="28.3" y2="128.46" gradientTransform="matrix(1 0 0 -1 0 200)">
			<stop  offset="0" style="stop-color:#111111"/>
			<stop  offset="1" style="stop-color:#000000"/>
		</linearGradient>
		<path id="bezier" class="st0" d="M14.4,67.3h27.8v4.2H14.4V67.3z"/>
		<path id="bezier2" class="st1" d="M18.3,50.9c1.1,1.5,0,5.1-2.5,8c-2.5,2.9-5.5,4-6.6,2.5c-1.1-1.5,0-5.1,2.5-8
			C14.2,50.5,17.2,49.3,18.3,50.9z"/>
		<path id="bezier3" class="st2" d="M10.5,60.6c-0.4-0.3-0.4-1.3-0.1-2.4c0,0.1-0.1,0.2-0.1,0.3c-0.5,1.2-0.5,2.4-0.1,2.7
			c0.4,0.3,1.2-0.5,1.7-1.7c0-0.1,0.1-0.2,0.1-0.3C11.6,60.3,10.9,60.9,10.5,60.6z"/>
		<path id="bezier4" class="st1" d="M38.5,63.3c-3.4-3.2-5.8-9.5-5.3-14.1c0.4-4.6,3.6-5.8,7-2.6c3.4,3.2,5.8,9.5,5.3,14.1
			C45,65.3,41.9,66.5,38.5,63.3z"/>
		<path id="bezier5" class="st2" d="M41.6,63c-0.8,0-1.5-1.3-1.6-2.9c0,0.1,0,0.3,0,0.4c0,1.9,0.7,3.4,1.6,3.4s1.6-1.5,1.6-3.4
			c0-0.1,0-0.3,0-0.4C43.1,61.7,42.4,63,41.6,63z"/>
		<path id="bezier6" class="st3" d="M44.8,51.2L40,44.4l-3.9,1.8l-0.3-1.1H20.2l-0.3,1l-3.5-1.6l-4.8,6.8l6.2,2.8L14,67.7h28.7
			l-4.2-13.6L44.8,51.2z"/>
		<path id="bezier7" class="st4" d="M31.4,44.7c1.8,1.8,1.8,4.6,0,6.4c-1.8,1.8-4.6,1.8-6.4,0c-1.8-1.8-1.8-4.6,0-6.4
			C26.8,42.9,29.7,42.9,31.4,44.7z"/>
		<path id="bezier8" class="st5" d="M30.9,44.7c1.5,1.6,1.5,4.1,0,5.7c-1.5,1.6-3.9,1.6-5.3,0c-1.5-1.6-1.5-4.1,0-5.7
			C27,43.2,29.4,43.2,30.9,44.7z"/>
		<path id="bezier9" class="st1" d="M7.3,25.6c1.4,1.4,1.4,3.7,0,5.1c-1.4,1.4-3.7,1.4-5.1,0c-1.4-1.4-1.4-3.6,0-5.1
			C3.6,24.2,5.9,24.2,7.3,25.6z"/>
		<path id="bezier10" class="st1" d="M53.8,25.6c1.4,1.4,1.4,3.7,0,5.1c-1.4,1.4-3.7,1.4-5.1,0c-1.4-1.4-1.4-3.6,0-5.1
			C50.1,24.2,52.3,24.2,53.8,25.6z"/>
		<path id="bezier11" class="st1" d="M44.8,17c9.2,7.2,9.2,18.8,0,25.9c-9.2,7.2-24.2,7.2-33.4,0c-9.2-7.2-9.2-18.8,0-25.9
			C20.7,9.8,35.6,9.8,44.8,17z"/>
		<path id="bezier12" class="st6" d="M17.2,30.4c0,2.3-1.8-2.9-4.1-2.9c-2.3,0-4.1,5.1-4.1,2.9c0-2.3,1.8-4.1,4.1-4.1
			C15.4,26.3,17.2,28.1,17.2,30.4z"/>
		<path id="bezier13" class="st6" d="M48.5,30.4c0,2.3-1.8-2.9-4.1-2.9c-2.3,0-4.1,5.1-4.1,2.9c0-2.3,1.8-4.1,4.1-4.1
			C46.7,26.3,48.5,28.1,48.5,30.4z"/>
		<path id="bezier14" class="st2" d="M44.3,23.6c2.9,0,5.3,2,5.5,4.5c0-0.1,0-0.2,0-0.3c0-2.6-2.5-4.8-5.6-4.8s-5.6,2.1-5.6,4.8
			c0,0.1,0,0.2,0,0.3C38.9,25.5,41.3,23.6,44.3,23.6z"/>
		<path id="bezier15" class="st2" d="M13.1,23.6c2.9,0,5.4,2,5.5,4.5c0-0.1,0-0.2,0-0.3c0-2.6-2.5-4.8-5.6-4.8
			c-3.1,0-5.6,2.1-5.6,4.8c0,0.1,0,0.2,0,0.3C7.8,25.5,10.2,23.6,13.1,23.6z"/>
		<g id="group7" class="st7">
			<path id="bezier16" class="st8" d="M50.9,16.2c0-0.3,0-0.5,0-0.8C50.9,7.6,40.6,1.2,28,1.2C15.5,1.2,5.4,7.3,5.1,15h45.8V16.2
				L50.9,16.2z"/>
			<path id="bezier17" class="st8" d="M50.9,15H5.1h0v14.9l32.4-10.7l13.4,10.7V16.2V15z"/>
		</g>
		<path id="bezier18" class="st9" d="M51.7,16c0-0.3,0-0.5,0-0.8c0-3.3-1.8-6.3-5-8.7c-0.4-0.3,1.3-3.7,0.9-4
			c-0.3-0.2-2.8,2.6-3.1,2.4C44.3,5,44.1,4.9,44,4.8c-0.7-0.4,0.1-4.4-0.7-4.7c-0.7-0.3-2.9,3.2-3.5,2.9c-3.4-1.2-7.4-1.8-11.6-1.8
			C15.4,1.1,4.9,7.2,4.6,14.8h47.2V16L51.7,16z"/>
		<path id="bezier19" class="st9" d="M51.7,13.9H4.6h0v15.5c0,0,15.4-5.1,20.5-6.8c3.2-1.1,12.9-4.3,12.9-4.3l13.8,11.1V15.2V13.9z"
			/>
		<path id="bezier20" class="st1" d="M28.1,68.2h0.2v3.4h-0.2V68.2z"/>
		<path id="bezier21" class="st1" d="M28.3,32.5c0.6,0,1.2,0.4,1.3,1c0-0.1,0-0.2,0-0.3c0-0.7-0.6-1.3-1.3-1.3
			c-0.7,0-1.3,0.6-1.3,1.3c0,0.1,0,0.2,0,0.3C27.2,32.9,27.7,32.5,28.3,32.5z"/>
		<path id="bezier22" class="st1" d="M44,36.8c0.3,0.3,0.3,0.9,0,1.2c-0.3,0.3-0.9,0.3-1.2,0c-0.3-0.3-0.3-0.9,0-1.2
			C43.1,36.4,43.7,36.4,44,36.8z"/>
		<path id="bezier23" class="st1" d="M45.4,38.9c0.1,0.1,0.1,0.3,0,0.5c-0.1,0.1-0.4,0.1-0.5,0c-0.2-0.1-0.2-0.3,0-0.5
			C45,38.7,45.2,38.7,45.4,38.9z"/>
		<path id="bezier24" class="st1" d="M41.8,38.7c0.2,0.2,0.2,0.6,0,0.8c-0.2,0.2-0.6,0.2-0.8,0c-0.2-0.2-0.2-0.6,0-0.8
			C41.3,38.5,41.6,38.5,41.8,38.7z"/>
		<path id="bezier25" class="st1" d="M42.7,38.9c0.1,0.1,0.1,0.2,0,0.3c-0.1,0.1-0.2,0.1-0.3,0s-0.1-0.2,0-0.3S42.7,38.8,42.7,38.9z
			"/>
		<path id="bezier26" class="st1" d="M14.9,36.8c0.3,0.3,0.3,0.9,0,1.2c-0.3,0.3-0.9,0.3-1.2,0c-0.3-0.3-0.3-0.9,0-1.2
			C14.1,36.4,14.6,36.4,14.9,36.8z"/>
		<path id="bezier27" class="st1" d="M16.3,38.9c0.2,0.1,0.2,0.3,0,0.5c-0.1,0.1-0.3,0.1-0.5,0c-0.1-0.1-0.1-0.3,0-0.5
			C15.9,38.7,16.2,38.7,16.3,38.9z"/>
		<path id="bezier28" class="st1" d="M12.8,38.7c0.2,0.2,0.2,0.6,0,0.8c-0.2,0.2-0.6,0.2-0.8,0c-0.2-0.2-0.2-0.6,0-0.8
			C12.2,38.5,12.6,38.5,12.8,38.7z"/>
		<path id="bezier29" class="st1" d="M13.7,38.9c0.1,0.1,0.1,0.2,0,0.3c-0.1,0.1-0.2,0.1-0.3,0s-0.1-0.2,0-0.3S13.6,38.8,13.7,38.9z
			"/>
		<path id="bezier30" class="st1" d="M11.8,35.2c-2.1,0-3.9,0.9-5.2,2.3c2.2,3.9,6.2,7.1,11.1,9c0.8-1.2,1.3-2.6,1.3-4.1
			C19,38.4,15.8,35.2,11.8,35.2z"/>
		<path id="bezier31" class="st1" d="M44.4,35.2c2.1,0,3.9,0.9,5.2,2.3c-2.3,3.9-6.2,7.1-11.1,9c-0.8-1.2-1.3-2.6-1.3-4.1
			C37.2,38.4,40.4,35.2,44.4,35.2z"/>
		<path id="bezier32" class="st10" d="M12.4,71.2c0.5,0.3,0.5,0.9,0,1.2c-0.5,0.3-1.3,0.3-1.7,0c-0.5-0.3-0.5-0.9,0-1.2
			C11.1,70.8,11.9,70.8,12.4,71.2z"/>
		<path id="bezier33" class="st10" d="M14.3,71.2c0.5,0.3,0.5,0.9,0,1.2c-0.5,0.3-1.3,0.3-1.7,0c-0.5-0.3-0.5-0.9,0-1.2
			C13.1,70.8,13.8,70.8,14.3,71.2z"/>
		<path id="bezier34" class="st10" d="M16.2,71.2c0.5,0.3,0.5,0.9,0,1.2c-0.5,0.3-1.3,0.3-1.7,0c-0.5-0.3-0.5-0.9,0-1.2
			C15,70.8,15.8,70.8,16.2,71.2z"/>
		<path id="bezier35" class="st10" d="M18.1,71.2c0.5,0.3,0.5,0.9,0,1.2c-0.5,0.3-1.3,0.3-1.7,0c-0.5-0.3-0.5-0.9,0-1.2
			C16.9,70.8,17.7,70.8,18.1,71.2z"/>
		<path id="bezier36" class="st10" d="M20,71.2c0.5,0.3,0.5,0.9,0,1.2c-0.5,0.3-1.2,0.3-1.7,0c-0.5-0.3-0.5-0.9,0-1.2
			C18.8,70.8,19.6,70.8,20,71.2z"/>
		<path id="bezier37" class="st10" d="M22,71.2c0.5,0.3,0.5,0.9,0,1.2c-0.5,0.3-1.3,0.3-1.7,0c-0.5-0.3-0.5-0.9,0-1.2
			C20.7,70.8,21.5,70.8,22,71.2z"/>
		<path id="bezier38" class="st10" d="M24.1,71.2c0.5,0.3,0.5,0.9,0,1.2c-0.5,0.3-1.3,0.3-1.7,0c-0.5-0.3-0.5-0.9,0-1.2
			C22.8,70.8,23.6,70.8,24.1,71.2z"/>
		<path id="bezier39" class="st10" d="M26,71.2c0.5,0.3,0.5,0.9,0,1.2c-0.5,0.3-1.3,0.3-1.7,0c-0.5-0.3-0.5-0.9,0-1.2
			C24.7,70.8,25.5,70.8,26,71.2z"/>
		<path id="bezier40" class="st10" d="M27.9,71.2c0.5,0.3,0.5,0.9,0,1.2c-0.5,0.3-1.2,0.3-1.7,0c-0.5-0.3-0.5-0.9,0-1.2
			C26.6,70.8,27.4,70.8,27.9,71.2z"/>
		<path id="bezier41" class="st10" d="M30.3,71.2c0.5,0.3,0.5,0.9,0,1.2c-0.5,0.3-1.3,0.3-1.7,0c-0.5-0.3-0.5-0.9,0-1.2
			C29.1,70.8,29.9,70.8,30.3,71.2z"/>
		<path id="bezier42" class="st10" d="M32.2,71.2c0.5,0.3,0.5,0.9,0,1.2c-0.5,0.3-1.2,0.3-1.7,0c-0.5-0.3-0.5-0.9,0-1.2
			C31,70.8,31.8,70.8,32.2,71.2z"/>
		<path id="bezier43" class="st10" d="M34.2,71.2c0.5,0.3,0.5,0.9,0,1.2c-0.5,0.3-1.3,0.3-1.7,0c-0.5-0.3-0.5-0.9,0-1.2
			C32.9,70.8,33.7,70.8,34.2,71.2z"/>
		<path id="bezier44" class="st10" d="M36.1,71.2c0.5,0.3,0.5,0.9,0,1.2c-0.5,0.3-1.2,0.3-1.7,0c-0.5-0.3-0.5-0.9,0-1.2
			C34.8,70.8,35.6,70.8,36.1,71.2z"/>
		<path id="bezier45" class="st10" d="M38,71.2c0.5,0.3,0.5,0.9,0,1.2c-0.5,0.3-1.3,0.3-1.7,0c-0.5-0.3-0.5-0.9,0-1.2
			C36.7,70.8,37.5,70.8,38,71.2z"/>
		<path id="bezier46" class="st10" d="M39.9,71.2c0.5,0.3,0.5,0.9,0,1.2c-0.5,0.3-1.3,0.3-1.7,0c-0.5-0.3-0.5-0.9,0-1.2
			C38.6,70.8,39.4,70.8,39.9,71.2z"/>
		<path id="bezier47" class="st10" d="M42,71.2c0.5,0.3,0.5,0.9,0,1.2c-0.5,0.3-1.3,0.3-1.7,0c-0.5-0.3-0.5-0.9,0-1.2
			C40.7,70.8,41.5,70.8,42,71.2z"/>
		<path id="bezier48" class="st10" d="M43.9,71.2c0.5,0.3,0.5,0.9,0,1.2c-0.5,0.3-1.2,0.3-1.7,0c-0.5-0.3-0.5-0.9,0-1.2
			C42.7,70.8,43.4,70.8,43.9,71.2z"/>
		<path id="bezier49" class="st10" d="M45.8,71.2c0.5,0.3,0.5,0.9,0,1.2c-0.5,0.3-1.3,0.3-1.7,0c-0.5-0.3-0.5-0.9,0-1.2
			C44.6,70.8,45.3,70.8,45.8,71.2z"/>
		<path id="bezier50" class="st11" d="M36,32.4c4.2,0.5,4.2,1.2,0,1.7c-4.2,0.5-11,0.5-15.3,0c-4.2-0.5-4.2-1.2,0-1.7
			C25,32,31.8,32,36,32.4z"/>
		<path id="bezier51" class="st4" d="M19.3,68.3c-5,0-9,1.6-9,3.6h17.9C28.2,69.9,24.2,68.3,19.3,68.3z"/>
		<path id="bezier52" class="st4" d="M37.2,68.3c-5,0-9,1.6-9,3.6h17.9C46.2,69.9,42.2,68.3,37.2,68.3z"/>
		<path id="bezier53" class="st12" d="M8.6,56.2c-0.1-0.7,0.3-0.9,0.9-0.6c0.6,0.3,1.2,1.1,1.3,1.7c0.1,0.6-0.3,0.9-0.9,0.6
			C9.3,57.6,8.7,56.8,8.6,56.2z"/>
	</g>
	<path id="bezier54" class="st13" d="M35.9,39.4c0,1.6-3.3,3-7.4,3s-7.4-1.3-7.4-3c0-1.7,3.3-3,7.4-3S35.9,37.8,35.9,39.4z"/>
	<path id="bezier55" class="st1" d="M20.4,35.6h16v3.7h-16V35.6z"/>
</g>
</svg>
