<?xml version="1.0" standalone="no"?>
<!DOCTYPE svg PUBLIC "-//W3C//DTD SVG 20010904//EN"
 "http://www.w3.org/TR/2001/REC-SVG-20010904/DTD/svg10.dtd">
<svg version="1.0" xmlns="http://www.w3.org/2000/svg"
 width="1183.000000pt" height="1183.000000pt" viewBox="0 0 1183.000000 1183.000000"
 preserveAspectRatio="xMidYMid meet">
<metadata>
Created by potrace 1.15, written by Peter Selinger 2001-2017
</metadata>
<g transform="translate(0.000000,1183.000000) scale(0.100000,-0.100000)"
fill="#000000" stroke="none">
<path d="M8382 10140 c-38 -24 -92 -77 -289 -286 -87 -93 -158 -159 -183 -171
l-40 -21 -123 39 c-360 114 -786 199 -1229 245 -210 21 -805 30 -1033 15 -809
-54 -1513 -232 -2124 -537 -278 -139 -451 -247 -661 -415 -405 -322 -664 -709
-762 -1138 -22 -96 -22 -97 -25 -1375 -3 -1033 -1 -1277 9 -1273 60 22 948
298 972 302 41 5 550 166 556 175 8 12 612 200 641 200 13 0 34 7 45 14 12 8
785 256 1718 551 l1697 536 102 -78 c57 -43 256 -195 444 -338 188 -143 342
-265 343 -271 0 -12 78 -71 124 -95 17 -8 317 -234 668 -502 350 -268 639
-487 642 -487 4 0 5 577 3 1283 l-3 1282 -26 105 c-101 406 -337 760 -711
1073 l-109 91 7 45 c4 25 40 149 81 274 77 235 95 328 64 334 -27 6 -100 -52
-272 -215 -92 -87 -185 -168 -206 -179 l-38 -22 -55 32 c-92 55 -92 58 -99
427 -5 288 -7 318 -25 355 -24 48 -54 55 -103 25z"/>
<path d="M7930 2453 c-356 -167 -840 -315 -1202 -368 l-47 -7 -6 -67 c-20
-203 -101 -371 -242 -501 -89 -82 -159 -124 -270 -163 -75 -26 -106 -31 -214
-35 -153 -5 -249 15 -379 80 -69 34 -103 61 -181 138 -83 82 -103 108 -142
190 -48 97 -71 178 -83 287 l-6 62 -42 6 c-425 68 -874 202 -1223 365 l-83 39
-202 -287 c-111 -158 -268 -381 -350 -497 -81 -115 -144 -212 -140 -216 4 -4
236 -111 515 -239 279 -128 509 -236 511 -239 2 -3 -34 -141 -79 -306 -46
-165 -80 -303 -77 -307 10 -9 241 -79 402 -122 876 -229 1866 -248 2751 -51
301 67 699 187 699 210 0 7 -38 137 -85 290 -47 153 -84 279 -83 280 2 1 237
109 523 240 286 131 523 241 527 244 8 7 -692 1003 -707 1007 -5 1 -44 -14
-85 -33z"/>
</g>
</svg>
