<svg id="Layer_1" data-name="Layer 1" xmlns="http://www.w3.org/2000/svg" width="347px" height="158px" viewBox="0 0 283.41 58.52"><defs><style>.cls-1{fill:#009f9d;}</style></defs><title>Untitled-2</title><path class="cls-1" d="M123.22,70.19c-1.67-.16-3.42-.28-5.24-.36s-4.11-.09-6.87,0c-1.36,0-2.73,0-4.1.07s-2.64.12-3.75.2-2.09.17-2.9.27a9,9,0,0,0-1.6.31,3.36,3.36,0,0,0-1.05,1.1,8.72,8.72,0,0,0-.9,1.64c-.1.36-.21.76-.31,1.17a8.39,8.39,0,0,0-.24,1.13,4.9,4.9,0,0,0,0,1.21c.66-.19,1.34-.36,2-.51l-1,.63c-1.23.76-2.49,1.47-3.79,2.15a38,38,0,0,1-3.75,1.72c0-.42.1-.92.16-1.52s.07-1.11.07-1.53a12.16,12.16,0,0,0-1-5.19,12.34,12.34,0,0,0-2.46-3.56,10.94,10.94,0,0,0-3-2.11A7.73,7.73,0,0,0,81,66.2l-.43-.15a1,1,0,0,0-.43-.08,12.2,12.2,0,0,0-2.89.35,11.86,11.86,0,0,0-2.77,1A8.87,8.87,0,0,0,72.24,69a6.57,6.57,0,0,0-1.45,2.35,18.59,18.59,0,0,0-2.3,3.44,25.13,25.13,0,0,0-1.6,3.75,29.89,29.89,0,0,0-1,3.67,19.2,19.2,0,0,0-.28,2c-.87,1-1.78,2-2.77,3.09-1.22,1.31-2.43,2.5-3.63,3.6a21.21,21.21,0,0,1-3.47,2.62,4.74,4.74,0,0,1-2.86.82,4.1,4.1,0,0,1-2.5-.94A6,6,0,0,1,49,90.85a11.92,11.92,0,0,1-.12-5.12q2-4.68,3.67-8.83c1.1-2.75,2-5.2,2.82-7.34.88-2.45,1.66-4.71,2.34-6.8a22.63,22.63,0,0,0,.74-2.53c.18-.81.38-1.63.59-2.47.41,0,.82,0,1.21,0s.74,0,1,0q2.51,0,4.38.15c1.25.11,2.33.21,3.24.31a20.07,20.07,0,0,1,2.34.4,14,14,0,0,0,1.76.31,1.73,1.73,0,0,0,1.41-.31,2.84,2.84,0,0,0,1.13-2.43.79.79,0,0,0-.58-.78c-.37-.1-.92-.3-1.65-.58a20.86,20.86,0,0,0-2.89-.86,43.42,43.42,0,0,0-4.33-.78,41.9,41.9,0,0,0-5.82-.36,43.05,43.05,0,0,0,.86-6.56,7.29,7.29,0,0,0-.32-3.2,1.89,1.89,0,0,0-1.25-.59,6.7,6.7,0,0,0-1.79,0A9.44,9.44,0,0,0,56,42.8a1.88,1.88,0,0,0-1.05.67,16.55,16.55,0,0,0-1.76,3.86c-.65,1.85-1.32,4-2,6.53-.89.15-1.79.29-2.7.39s-1.86.18-2.85.23a32.9,32.9,0,0,1-3.75,0c-1.15-.07-2.21-.16-3.2-.27a1.82,1.82,0,0,0-1.06.43,4.31,4.31,0,0,0-1,1,2.73,2.73,0,0,0-.46,1.17.83.83,0,0,0,.54.9,18.81,18.81,0,0,0,3.32,1.13,18.58,18.58,0,0,0,4.73.58,21.76,21.76,0,0,0,2.42-.15l2.66-.31q-1.09,4.53-2.07,9.41c-.66,3.26-1.24,6.3-1.76,9.14s-.94,5.34-1.25,7.5-.5,3.66-.55,4.49a10.22,10.22,0,0,0,.24,3.24A9.63,9.63,0,0,0,45.83,96a8.06,8.06,0,0,0,2.7,2.5,8.39,8.39,0,0,0,4.3,1,8.19,8.19,0,0,0,4.45-2,40.83,40.83,0,0,0,5.47-5c1-1.08,2-2.22,3-3.39,0,.29,0,.56.06.85a13.59,13.59,0,0,0,1.09,4.45,8.43,8.43,0,0,0,2.73,3.4,8.31,8.31,0,0,0,5,1.37,11.89,11.89,0,0,0,5-1.06,13.65,13.65,0,0,0,4.14-2.93A18.2,18.2,0,0,0,87,90.81a28.08,28.08,0,0,0,2.11-5.55A24.69,24.69,0,0,0,94,82.92c1.72-1,3.3-2.11,4.76-3.2s2.72-2.11,3.79-3c.47-.41.85-.76,1.17-1L105,75.5c1.51-.16,3-.26,4.46-.31,2.18-.06,4.4-.09,6.64-.12s4.08,0,5.54,0a2,2,0,0,0,1.57-.43,4.69,4.69,0,0,0,1-1.84,3.62,3.62,0,0,0,.28-2C124.37,70.53,123.94,70.29,123.22,70.19ZM81.3,89.91a12.36,12.36,0,0,1-1.68,2.42,8,8,0,0,1-2.11,1.72,5.06,5.06,0,0,1-2.57.67,3,3,0,0,1-2-.67,4.76,4.76,0,0,1-1.25-1.72A8.17,8.17,0,0,1,71,89.91a23,23,0,0,1-.16-2.77,15,15,0,0,1,.32-3c.2-1,.46-2.11.78-3.2a11.5,11.5,0,0,0,3.32,4.49,7.81,7.81,0,0,0,5.11,1.76c.42,0,.8,0,1.14,0l1-.12A20.35,20.35,0,0,1,81.3,89.91Zm3.24-10.82a6.35,6.35,0,0,1-.19,1.45c-.13.54-.27,1.16-.43,1.83a7,7,0,0,1-.78.12,6.79,6.79,0,0,1-.78,0,8.06,8.06,0,0,1-3.79-.74,4.9,4.9,0,0,1-2-1.84,6.42,6.42,0,0,1-.79-2.46,24,24,0,0,1-.15-2.62,4.82,4.82,0,0,1,.23-1.48,9.57,9.57,0,0,1,2.54-2.31,5.52,5.52,0,0,1,2.85-.82,2,2,0,0,1,1.6.82A6.65,6.65,0,0,1,84,73.19a13.27,13.27,0,0,1,.58,2.86A14,14,0,0,1,84.54,79.09Z" transform="translate(-36.18 -41.83)"/><path class="cls-1" d="M203,71.83a2.79,2.79,0,0,0-1.33.78,22.81,22.81,0,0,1-2.5,2.11c-1,.78-2.17,1.55-3.39,2.3s-2.49,1.47-3.79,2.15a40.26,40.26,0,0,1-3.75,1.72c.05-.42.1-.92.15-1.52s.08-1.11.08-1.53A11.69,11.69,0,0,0,185,69.09,10.75,10.75,0,0,0,182,67a7.8,7.8,0,0,0-2.54-.78l-.43-.15a1,1,0,0,0-.43-.08,12.9,12.9,0,0,0-5.67,1.36A8.81,8.81,0,0,0,170.68,69a6.44,6.44,0,0,0-1.45,2.35,18.59,18.59,0,0,0-2.3,3.44,25.13,25.13,0,0,0-1.6,3.75,28.2,28.2,0,0,0-1,3.67,18.37,18.37,0,0,0-.28,2.06c-.81.92-1.66,1.87-2.57,2.86q-1.8,2-3.6,3.59a30.68,30.68,0,0,1-3.39,2.74,5.13,5.13,0,0,1-2.7,1.09,2.28,2.28,0,0,1-1.72-.86,3.89,3.89,0,0,1-.7-2.81,34.56,34.56,0,0,1,.43-3.52c.23-1.45.48-3,.74-4.61a85.84,85.84,0,0,0,4.8-8.24q2.23-4.33,3.95-8.67a70.31,70.31,0,0,0,2.77-8.4,36,36,0,0,0,1.21-7.5,29.53,29.53,0,0,0,0-4.45,6.91,6.91,0,0,0-.58-2.46,1.89,1.89,0,0,0-1.06-1,4.65,4.65,0,0,0-1.4-.19,4.09,4.09,0,0,0-1.33.23,8.54,8.54,0,0,0-1.33.47,6.81,6.81,0,0,0-1.48.94c-.84,2.76-1.59,5.39-2.27,7.89S152.56,56.07,152,58q-.85,3.36-1.64,6.25-.47,1.95-.93,4.14c-.32,1.46-.66,2.94-1,4.45a14.19,14.19,0,0,0-.74-2.34,10.86,10.86,0,0,0-1.29-2.31,6.51,6.51,0,0,0-1.88-1.71,4.5,4.5,0,0,0-2.42-.67,11.89,11.89,0,0,0-6.05,1.76,19.31,19.31,0,0,0-5.39,4.76,26.9,26.9,0,0,0-4,7.07,27.7,27.7,0,0,0-1.79,8.6,14.25,14.25,0,0,0,.46,4.92A9.94,9.94,0,0,0,127,96.2a5.77,5.77,0,0,0,2.22,1.8,5.94,5.94,0,0,0,2.35.54,11.75,11.75,0,0,0,6.36-2.14,33,33,0,0,0,6.6-5.82c-.1.88-.18,1.51-.23,1.87a6.35,6.35,0,0,0,.35,2.5,8,8,0,0,0,1.21,2.27,7.15,7.15,0,0,0,1.76,1.64,3.82,3.82,0,0,0,2.07.62,7.18,7.18,0,0,0,3.32-1A27.49,27.49,0,0,0,156.85,96a39.35,39.35,0,0,0,4-3.6c1.15-1.16,2.24-2.36,3.29-3.56,0,.4,0,.8.07,1.22a13.59,13.59,0,0,0,1.1,4.45,7.75,7.75,0,0,0,7.77,4.77,11.89,11.89,0,0,0,5-1.06,13.77,13.77,0,0,0,4.14-2.93,18.17,18.17,0,0,0,3.16-4.45,26.89,26.89,0,0,0,2.11-5.55,24.5,24.5,0,0,0,4.93-2.34q2.56-1.56,4.76-3.2c1.46-1.1,2.72-2.11,3.79-3a24,24,0,0,0,2-1.87,3.93,3.93,0,0,0,.86-1.57,1.43,1.43,0,0,0-.08-1.09A.7.7,0,0,0,203,71.83Zm-56.44,9c-.19,1-.38,2-.59,3-.57.73-1.32,1.64-2.23,2.73a42.13,42.13,0,0,1-3,3.21,21.84,21.84,0,0,1-3.29,2.65,5.76,5.76,0,0,1-3.08,1.1,3.41,3.41,0,0,1-3-1.64c-.73-1.1-1-2.89-.94-5.39a19.52,19.52,0,0,1,1.25-5.32,29.8,29.8,0,0,1,2.74-5.58A24,24,0,0,1,138,71.08a5.41,5.41,0,0,1,3.67-1.83,2.26,2.26,0,0,1,2,1,6.81,6.81,0,0,1,1,2.26,12,12,0,0,1,.43,2.5c0,.81.08,1.37.08,1.68a2.35,2.35,0,0,0,.31,1.37c.21.28.6.3,1.17,0a2.32,2.32,0,0,0,.28-.16l.27-.16C146.94,78.81,146.72,79.82,146.54,80.81Zm33.2,9.1a12.8,12.8,0,0,1-1.68,2.42A8,8,0,0,1,176,94.05a5.07,5.07,0,0,1-2.58.67,3,3,0,0,1-2-.67,4.64,4.64,0,0,1-1.25-1.72,8.17,8.17,0,0,1-.62-2.42,23,23,0,0,1-.16-2.77,15,15,0,0,1,.31-3c.21-1,.47-2.11.78-3.2a11.7,11.7,0,0,0,3.32,4.49,7.86,7.86,0,0,0,5.12,1.76c.42,0,.79,0,1.13,0l1.06-.12A23,23,0,0,1,179.74,89.91ZM183,79.09a6.35,6.35,0,0,1-.19,1.45c-.13.54-.28,1.16-.43,1.83a7,7,0,0,1-.78.12,7.09,7.09,0,0,1-.79,0,8,8,0,0,1-3.78-.74A4.93,4.93,0,0,1,175,80a6.58,6.58,0,0,1-.78-2.46,24,24,0,0,1-.15-2.62,4.54,4.54,0,0,1,.23-1.48,9.57,9.57,0,0,1,2.54-2.31,5.52,5.52,0,0,1,2.85-.82,2,2,0,0,1,1.6.82,6.85,6.85,0,0,1,1.1,2.11,13.27,13.27,0,0,1,.58,2.86A14,14,0,0,1,183,79.09Z" transform="translate(-36.18 -41.83)"/><path class="cls-1" d="M235.09,43a5.39,5.39,0,0,0-1.17-.12,9.17,9.17,0,0,0-1.56.16,17.09,17.09,0,0,0-1.72.39,15,15,0,0,0-1.45.39,6.49,6.49,0,0,0-1.36.62,12.09,12.09,0,0,1,.23,2.43,19.6,19.6,0,0,1-.16,2.57c-.1.94-.23,1.91-.39,2.9-.31,1.4-.88,3.93-1.72,7.57l-3.16,13.36q-2.07,8.76-5.51,23.21a3.19,3.19,0,0,0,.71,1.36,5.26,5.26,0,0,0,.93.82,4.73,4.73,0,0,0,1.1.47,9.72,9.72,0,0,0,1.17.08,3.47,3.47,0,0,0,1-.16,2.06,2.06,0,0,0,.94-.54q3.6-14.14,6-23.44t3.79-14.69c1.09-4.22,1.95-7.44,2.58-9.69.26-1.14.49-2.21.7-3.2.1-.83.17-1.64.19-2.42a1.86,1.86,0,0,0-.43-1.56A.87.87,0,0,0,235.09,43Z" transform="translate(-36.18 -41.83)"/><path class="cls-1" d="M247.51,55a1.61,1.61,0,0,0,1.41.31,4.75,4.75,0,0,0,1.68-.66,5.79,5.79,0,0,0,1.48-1.33,4.46,4.46,0,0,0,.9-1.68,5.58,5.58,0,0,0,.2-1.8,6.07,6.07,0,0,0-.35-1.83,3.27,3.27,0,0,0-.9-1.33,1.63,1.63,0,0,0-1.45-.35,5,5,0,0,0-2,1,7.88,7.88,0,0,0-1.95,2.19,4.71,4.71,0,0,0-.71,2.73A3.76,3.76,0,0,0,247.51,55Z" transform="translate(-36.18 -41.83)"/><path class="cls-1" d="M278.61,84.44c-.42-1-.89-1.94-1.41-2.93s-1-2-1.48-2.89a19,19,0,0,1-1-2.42c-.26-.73-.53-1.59-.82-2.58a20.88,20.88,0,0,1-.66-3.28c.78-.94,1.38-1.7,1.79-2.3a12.55,12.55,0,0,0,.94-1.53c.21-.41.36-.75.47-1A1.76,1.76,0,0,0,276,64a6.7,6.7,0,0,0-1.64-1.37,3.38,3.38,0,0,0-2.81,0,11.45,11.45,0,0,0-3.05,1.76,14.47,14.47,0,0,0-2.58,2.61,8,8,0,0,0-1.4,2.54,2.91,2.91,0,0,0,.19,2.35,2.3,2.3,0,0,1,.43,1.64,9.88,9.88,0,0,1-.86,1.36c-.52.76-1.09,1.62-1.72,2.58-.24.37-.48.72-.71,1.08a3.68,3.68,0,0,0-.69.68c-.68,1-1.72,2.3-3.13,4s-2.93,3.25-4.57,4.84a43.11,43.11,0,0,1-4.84,4.1,7.37,7.37,0,0,1-3.95,1.72,1.67,1.67,0,0,1-1-.35,3.07,3.07,0,0,1-.86-1.29,4.26,4.26,0,0,1-.24-2.27,22.5,22.5,0,0,1,.59-3.16c.28-1.12.61-2.27,1-3.44s.67-2.23.93-3.16.65-2.15,1.18-3.63,1-2.93,1.48-4.34.86-2.63,1.17-3.67a6.16,6.16,0,0,0,.39-1.64,3.75,3.75,0,0,0-1.13,0A16.29,16.29,0,0,0,246,67a19.62,19.62,0,0,0-2.26.51,3.05,3.05,0,0,0-1.49.78A14.77,14.77,0,0,0,240,73.08a58,58,0,0,0-1.6,6.75,69.9,69.9,0,0,0-.86,7,31.29,31.29,0,0,0,0,5.35,5.74,5.74,0,0,0,.78,2.54,8.15,8.15,0,0,0,1.76,2.11,8.37,8.37,0,0,0,2.35,1.4,6.08,6.08,0,0,0,2.61.43,8.6,8.6,0,0,0,4.26-2,47.29,47.29,0,0,0,5.35-4.72,76.22,76.22,0,0,0,5.16-5.79c.44-.54.85-1.07,1.23-1.57l.25-.26c.26-.31.73-.9,1.41-1.76s1.39-1.8,2.15-2.81,1.46-2,2.11-2.93,1.1-1.62,1.36-2a8.39,8.39,0,0,1,.43,1.13c.19.55.38,1.11.59,1.68s.47,1.41.78,2.19c.37,1,.81,2.18,1.33,3.43s1,2.49,1.45,3.72a23.81,23.81,0,0,1,1,3.43,4.77,4.77,0,0,1,0,2.46,3.16,3.16,0,0,1-1,1.41,5.8,5.8,0,0,1-1.41.86,3.79,3.79,0,0,1-1.49.31,2.15,2.15,0,0,1-1.21-.31,4.18,4.18,0,0,1-.86-1.17c-.26-.52-.6-1.24-1-2.15a34.86,34.86,0,0,1-1.41-3.79l-1.64.55a5,5,0,0,0-1.09.47c-.31.2-.58.39-.78.54a8.59,8.59,0,0,0-1.18,1.25,11.36,11.36,0,0,0-.85,1.49,2.4,2.4,0,0,0,.11,2,10.65,10.65,0,0,0,1.57,2.69,10.89,10.89,0,0,0,2.57,2.39,5.69,5.69,0,0,0,3.17,1,8.83,8.83,0,0,0,4.49-1.25,17,17,0,0,0,3.83-3,21.1,21.1,0,0,0,2.81-3.63,10.1,10.1,0,0,0,1.37-3.2,4.59,4.59,0,0,0-.24-2.11C279.36,86.31,279,85.41,278.61,84.44Z" transform="translate(-36.18 -41.83)"/><path class="cls-1" d="M319,55.34c-.37-.1-.91-.3-1.64-.58a21.3,21.3,0,0,0-2.89-.86c-1.2-.29-2.65-.55-4.34-.78a41.8,41.8,0,0,0-5.82-.36,41.82,41.82,0,0,0,.86-6.56,7.35,7.35,0,0,0-.31-3.2,1.92,1.92,0,0,0-1.25-.59,6.78,6.78,0,0,0-1.8,0,9.62,9.62,0,0,0-1.76.39,1.92,1.92,0,0,0-1.05.67,17,17,0,0,0-1.76,3.86c-.65,1.85-1.32,4-2,6.53-.89.15-1.79.29-2.7.39s-1.86.18-2.85.23a33,33,0,0,1-3.75,0c-1.14-.07-2.21-.16-3.2-.27a1.85,1.85,0,0,0-1.06.43,4.08,4.08,0,0,0-1,1,2.75,2.75,0,0,0-.47,1.17.84.84,0,0,0,.54.9,19,19,0,0,0,3.33,1.13,18.44,18.44,0,0,0,4.72.58,21.61,21.61,0,0,0,2.42-.15l2.66-.31q-1.1,4.53-2.07,9.41c-.65,3.26-1.24,6.3-1.76,9.14s-.94,5.34-1.25,7.5-.49,3.66-.55,4.49a10.22,10.22,0,0,0,.24,3.24A9.46,9.46,0,0,0,289.9,96a8.12,8.12,0,0,0,2.69,2.5,8.42,8.42,0,0,0,4.3,1,8.16,8.16,0,0,0,4.45-2,40.23,40.23,0,0,0,5.47-5,70.69,70.69,0,0,0,5.35-6.45,50.55,50.55,0,0,0,4.1-6.4,3,3,0,0,0,.43-1.49,1,1,0,0,0-.35-.78,1,1,0,0,0-.82-.12,1.34,1.34,0,0,0-.82.59c-.31.42-.86,1.13-1.64,2.15s-1.69,2.15-2.73,3.4-2.18,2.52-3.4,3.82-2.44,2.5-3.64,3.6a20.39,20.39,0,0,1-3.47,2.62,4.71,4.71,0,0,1-2.85.82,4.08,4.08,0,0,1-2.5-.94A5.86,5.86,0,0,1,293,90.85a11.92,11.92,0,0,1-.12-5.12q2-4.68,3.68-8.83t2.81-7.34c.88-2.45,1.66-4.71,2.34-6.8a22.63,22.63,0,0,0,.74-2.53c.19-.81.38-1.63.59-2.47.42,0,.82,0,1.21,0s.74,0,1.06,0c1.66,0,3.12.05,4.37.15s2.33.21,3.24.31a20.66,20.66,0,0,1,2.35.4,13.85,13.85,0,0,0,1.75.31,1.73,1.73,0,0,0,1.41-.31,2.66,2.66,0,0,0,.9-1.14,2.85,2.85,0,0,0,.23-1.29A.78.78,0,0,0,319,55.34Z" transform="translate(-36.18 -41.83)"/></svg>